<?xml version="1.0" encoding="UTF-8"?>
<svg id="_レイヤー_1" data-name="レイヤー 1" xmlns="http://www.w3.org/2000/svg" viewBox="0 0 275.48 36.9">
  <defs>
    <style>
      .cls-1 {
        fill: #6ab82d;
      }

      .cls-2 {
        fill: #bd5da0;
      }

      .cls-3 {
        fill: #d3c946;
      }
    </style>
  </defs>
  <path class="cls-1" d="m31.26,5.14l-3.53,20.2h3.74l-.91,5.14h-13.63l.91-5.14h3.61l1.31-7.49h-10.54l-1.31,7.49h3.61l-.91,5.14H0l.91-5.14h3.74l3.53-20.2h-3.7l.87-5.14h13.63l-.87,5.14h-3.66l-1.22,7.05h10.54l1.22-7.05h-3.57l.87-5.14h13.63l-.87,5.14h-3.79Z"/>
  <path class="cls-1" d="m55.07,14.02l-1.97,11.24c-.64,3.65-2.45,5.22-6.02,5.22h-7.55c-3.49,0-4.82-1.65-4.17-5.22l1.97-11.24c.64-3.65,2.45-5.22,6.02-5.22h7.55c3.49,0,4.82,1.65,4.18,5.22Zm-6.3-.4h-4.98c-.64,0-.88.24-1,.88l-1.81,10.28c-.12.64-.04.88.68.88h4.98c.64,0,.92-.24,1.04-.88l1.81-10.28c.12-.64,0-.88-.72-.88Z"/>
  <path class="cls-1" d="m89.51,12.89h-.92c-.32,0-.61.19-.74.48l-7.32,16.62c-.13.29-.42.48-.74.48h-4.44c-.43,0-.79-.34-.81-.77l-.51-10.81c-.04-.87-1.24-1.07-1.56-.26l-4.55,11.34c-.12.31-.42.51-.75.51h-4.5c-.41,0-.76-.31-.81-.73l-1.69-16.13c-.04-.41-.39-.73-.81-.73h-.47c-.5,0-.88-.45-.8-.95l.44-2.48c.07-.39.4-.67.8-.67h8.07c.5,0,.88.45.8.95l-.44,2.48c-.07.39-.4.67-.8.67h-.58c-.45,0-.82.37-.81.82l.12,6.84c.02.88,1.23,1.11,1.56.29l4.73-11.55c.12-.3.42-.5.75-.5h4.03c.43,0,.78.33.81.76l.65,11.08c.05.88,1.26,1.06,1.57.23l2.55-6.89c.2-.53-.2-1.09-.76-1.09h0c-.5,0-.88-.45-.8-.95l.44-2.48c.07-.39.4-.67.8-.67h7.95c.5,0,.88.45.8.95l-.44,2.48c-.07.39-.4.67-.8.67Z"/>
  <path class="cls-3" d="m118.75,10.71h-5.44l.96-5.49h-4.48l-3.53,20.11h4.57l-.91,5.14h-15.37l.91-5.14h4.53l3.53-20.11h-4.48l-.96,5.49h-5.44l1.87-10.71h26.12l-1.87,10.71Z"/>
  <path class="cls-3" d="m137,14.02l-1.97,11.24c-.64,3.65-2.45,5.22-6.02,5.22h-7.55c-3.49,0-4.82-1.65-4.17-5.22l1.97-11.24c.64-3.65,2.45-5.22,6.02-5.22h7.55c3.49,0,4.82,1.65,4.18,5.22Zm-6.3-.4h-4.98c-.64,0-.88.24-1,.88l-1.81,10.28c-.12.64-.04.88.68.88h4.98c.64,0,.92-.24,1.04-.88l1.81-10.28c.12-.64,0-.88-.72-.88Z"/>
  <path class="cls-2" d="m166.33,6.45l-1.24,6.95c-.73,4.16-2.87,6.01-6.95,6.01h-9.18l-1.03,6.01h4.38l-.9,5.06h-14.24l.9-5.06h3.69l3.47-19.9h-3.65l.86-5.06h19.05c3.99,0,5.53,1.93,4.85,6.01Zm-6.95-.51h-8.02l-1.41,7.98h8.02c.64,0,.9-.21,1.03-.86l1.07-6.26c.13-.64.04-.86-.69-.86Z"/>
  <path class="cls-2" d="m186.18,13.27l-9.8,18.49c-.25.47.09,1.05.63,1.05h.38c.44,0,.78.4.7.84l-.47,2.67c-.06.34-.36.59-.7.59h-9.55c-.44,0-.78-.4-.7-.84l.47-2.67c.06-.34.36-.59.7-.59h2.09c.27,0,.52-.15.64-.39l.86-1.73c.07-.14.09-.29.07-.44l-2.87-16.76c-.06-.34-.36-.59-.7-.59h-.72c-.44,0-.78-.4-.7-.84l.47-2.67c.06-.34.36-.59.7-.59h8.23c.44,0,.78.4.7.84l-.47,2.67c-.06.34-.36.59-.7.59h-.62c-.42,0-.75.36-.71.78l.87,8.71c.07.72,1.05.89,1.36.23l4.05-8.71c.22-.47-.13-1.01-.65-1.01h0c-.44,0-.78-.4-.7-.84l.47-2.67c.06-.34.36-.59.7-.59h8.27c.44,0,.78.4.7.84l-.47,2.67c-.06.34-.36.59-.7.59h-1.18c-.26,0-.51.15-.63.38Z"/>
  <path class="cls-2" d="m196.9,25.02c-.12.64-.04.88.68.88h2.11c.83,0,1.45.75,1.31,1.56l-.34,1.92c-.11.64-.66,1.1-1.31,1.1h-3.86c-3.49,0-4.82-1.65-4.18-5.22l1.82-10.41c.14-.81-.48-1.56-1.31-1.56h0c-.83,0-1.46-.75-1.31-1.56l.33-1.84c.11-.63.67-1.1,1.31-1.1h1.02c.65,0,1.2-.46,1.31-1.1l.53-3.02c.11-.64.66-1.1,1.31-1.1h2.68c.83,0,1.45.75,1.31,1.56l-.37,2.09c-.14.81.48,1.56,1.31,1.56h1.44c.83,0,1.46.75,1.31,1.56l-.33,1.84c-.11.63-.67,1.1-1.31,1.1h-2.3c-.65,0-1.2.46-1.31,1.1l-1.86,10.62Z"/>
  <path class="cls-2" d="m227.6,27.55l-.37,2.11c-.08.47-.5.82-.98.82h-8.74c-.62,0-1.09-.56-.98-1.17l.37-2.11c.08-.47.5-.82.98-.82h.74c.48,0,.89-.35.98-.82l1.94-10.94c.12-.8,0-1.04-1.2-1.04-2.31,0-3.71.33-5.25,1.06-.29.14-.49.41-.54.72l-1.75,9.86c-.11.61.36,1.17.98,1.17h0c.62,0,1.09.56.98,1.17l-.37,2.11c-.08.47-.5.82-.98.82h-8.86c-.62,0-1.09-.56-.98-1.17l.37-2.11c.08-.47.5-.82.98-.82h1.3c.48,0,.89-.35.98-.82l3.38-19.13c.11-.61-.36-1.17-.98-1.17h-.6c-.62,0-1.09-.56-.98-1.17l.37-2.11c.08-.47.5-.82.98-.82h6.49c.62,0,1.09.56.98,1.17l-1.19,6.68c-.16.88.82,1.49,1.55.98,1.24-.88,2.77-1.4,5.19-1.4,4.13,0,5.46,1.65,4.78,5.38l-1.96,11.24c-.11.61.36,1.16.98,1.16h.44c.62,0,1.09.56.98,1.17Z"/>
  <path class="cls-2" d="m250.85,14.02l-1.97,11.24c-.64,3.65-2.45,5.22-6.02,5.22h-7.55c-3.49,0-4.82-1.65-4.17-5.22l1.97-11.24c.64-3.65,2.45-5.22,6.02-5.22h7.55c3.49,0,4.82,1.65,4.18,5.22Zm-6.3-.4h-4.98c-.64,0-.88.24-1,.88l-1.81,10.28c-.12.64-.04.88.68.88h4.98c.64,0,.92-.24,1.04-.88l1.81-10.28c.12-.64,0-.88-.72-.88Z"/>
  <path class="cls-2" d="m275.47,27.25l-.46,2.62c-.06.35-.37.61-.73.61h-9.26c-.46,0-.81-.42-.73-.87l.46-2.62c.06-.35.37-.61.73-.61h1.17c.36,0,.67-.26.73-.61l1.98-11.15c.12-.8,0-1.04-1.2-1.04-2.36,0-3.78.35-5.36,1.12-.21.1-.36.31-.4.54l-1.83,10.28c-.08.45.27.87.73.87h.6c.46,0,.81.42.73.87l-.46,2.62c-.06.35-.37.61-.73.61h-9.38c-.46,0-.81-.42-.73-.87l.46-2.62c.06-.35.37-.61.73-.61h1.73c.36,0,.67-.26.73-.61l2.11-12.01c.08-.45-.27-.87-.73-.87h-1.21c-.46,0-.81-.42-.73-.87l.46-2.62c.06-.35.37-.61.73-.61h7.01c.46,0,.81.42.73.87h0c-.12.68.67,1.13,1.2.69,1.32-1.09,2.93-1.76,5.66-1.76,4.13,0,5.46,1.65,4.78,5.38l-2.02,11.54c-.08.45.27.87.73.87h1.05c.46,0,.81.42.73.87Z"/>
</svg>